<svg id="Layer_1" data-name="Layer 1" xmlns="http://www.w3.org/2000/svg" viewBox="0 0 136.64 129.22"><defs><style>.cls-1{fill:#be1e2d;}</style></defs><title>bell</title><path class="cls-1" d="M163.32,135.35a39.42,39.42,0,0,1-14-22.25,106.33,106.33,0,0,1-2.52-21.77c-.19-7.79-.05-15.6-1.84-23.27-2.12-9.12-6-17.19-13.27-23.39-5.82-5-12.68-7.74-20.16-9.08-.69-.13-1.07-.24-1.13-1.08-.32-3.95-3-6.71-7.05-7.43A8.52,8.52,0,0,0,94,31.67a24.33,24.33,0,0,0-1,3.74s0,0,0,0c-.75.14-1.5.27-2.24.43C77,38.82,66.94,46.4,61.4,59.54A60.52,60.52,0,0,0,57,81.93c-.19,8.56-.19,17.12-1.59,25.6C54.35,114.05,52.59,120.34,49,126c-2.69,4.18-6.3,7.47-10.09,10.6L33.48,141H170.12C167.68,139,165.53,137.13,163.32,135.35Zm-21.65-31.74H61.93V77.52h79.74Z" transform="translate(-33.48 -26.94)"/><path class="cls-1" d="M120.07,140.92c-.48,7.3-8.41,15.54-18.82,15.23-9.93-.29-17.36-8.28-17.71-15.23Z" transform="translate(-33.48 -26.94)"/><path class="cls-1" d="M77.71,83.28h2V97.34h6.87V99H77.71Z" transform="translate(-33.48 -26.94)"/><path class="cls-1" d="M91.78,83.28h2V99h-2Z" transform="translate(-33.48 -26.94)"/><path class="cls-1" d="M98.34,83.28h2.12L103,91.8c.56,1.85.94,3.35,1.52,5.2h.1c.58-1.85,1-3.35,1.51-5.2l2.53-8.52h2l-5,15.75h-2.32Z" transform="translate(-33.48 -26.94)"/><path class="cls-1" d="M115.15,83.28h9.08V85h-7.07v4.93h6v1.7h-6v5.73h7.31V99h-9.32Z" transform="translate(-33.48 -26.94)"/></svg>